<svg xmlns="http://www.w3.org/2000/svg" viewBox="0 0 800 620" role="img" aria-label="Viseme mouth reference guide">
<defs>
 <radialGradient id="bg" cx="50%" cy="30%"><stop stop-color="#19131e"/><stop offset="1" stop-color="#050507"/></radialGradient>
 <linearGradient id="lip" x2="0" y2="1"><stop stop-color="#ff708d"/><stop offset=".45" stop-color="#e93762"/><stop offset="1" stop-color="#9d1c42"/></linearGradient>
 <linearGradient id="shine"><stop stop-color="#ffcad3" stop-opacity=".75"/><stop offset="1" stop-color="#ffcad3" stop-opacity="0"/></linearGradient>
 <style>.label{fill:#f4ede7;font:22px Inter,Arial,sans-serif;text-anchor:middle}.small{font-size:15px}.mouth{fill:url(#lip);stroke:#ff8198;stroke-width:2}.inside{fill:#3d1723}.tooth{fill:#fff5ea}.tongue{fill:#db4d66}</style>
</defs>
<rect width="800" height="620" rx="24" fill="url(#bg)"/>
<!-- a e i --> <g transform="translate(100 83)"><path class="mouth" d="M-70 0 Q-38-43 0-23 Q38-43 70 0 Q36 54 0 40 Q-36 54-70 0Z"/><path class="inside" d="M-57 4 Q0-25 57 4 Q0 41-57 4Z"/><path class="tooth" d="M-48 2 Q0-15 48 2 Q0 12-48 2Z"/><path class="tongue" d="M-35 18 Q0 8 35 18 Q0 32-35 18Z"/><path d="M-42-18 Q-10-29 14-20" fill="none" stroke="url(#shine)" stroke-width="5" stroke-linecap="round"/><text class="label" y="78">a e i</text></g>
<!-- o --> <g transform="translate(300 83)"><ellipse class="mouth" rx="48" ry="62"/><ellipse class="inside" rx="28" ry="44"/><path class="tongue" d="M-22 24 Q0 8 22 24 Q0 37-22 24Z"/><path d="M-22-39 Q0-51 17-39" fill="none" stroke="url(#shine)" stroke-width="5" stroke-linecap="round"/><text class="label" y="93">o</text></g>
<!-- bmp --> <g transform="translate(500 83)"><path class="mouth" d="M-72 0 Q-38-30 0-17 Q39-30 72 0 Q34 22 0 17 Q-34 22-72 0Z"/><path d="M-56 0 Q0 8 56 0" stroke="#7f1937" stroke-width="5" fill="none"/><path d="M-39-13 Q-8-22 18-15" fill="none" stroke="url(#shine)" stroke-width="5" stroke-linecap="round"/><text class="label" y="62">b m p</text></g>
<!-- soft --> <g transform="translate(696 83)"><path class="mouth" d="M-70 0 Q-36-34 0-19 Q36-34 70 0 Q32 39 0 31 Q-34 39-70 0Z"/><path class="inside" d="M-57 3 Q0-18 57 3 Q0 26-57 3Z"/><path class="tooth" d="M-49 2 Q0-13 49 2 Q0 9-49 2Z"/><text class="label small" y="65">c d g k n</text><text class="label small" y="86">s t x y z</text></g>
<!-- u --> <g transform="translate(100 284)"><ellipse class="mouth" rx="53" ry="58"/><path class="inside" d="M-35-5 Q0-25 35-5 L29 24 Q0 34-29 24Z"/><path d="M-28-36 Q0-47 18-36" fill="none" stroke="url(#shine)" stroke-width="5" stroke-linecap="round"/><text class="label" y="91">u</text></g>
<!-- fv --> <g transform="translate(300 284)"><path class="mouth" d="M-72 0 Q-37-34 0-18 Q37-34 72 0 Q37 42 0 34 Q-37 42-72 0Z"/><path class="inside" d="M-58 2 Q0-14 58 2 Q0 28-58 2Z"/><path class="tooth" d="M-51-1 Q0-15 51-1 L44 11 Q0 4-44 11Z"/><text class="label" y="72">f v</text></g>
<!-- th --> <g transform="translate(500 284)"><path class="mouth" d="M-73 0 Q-38-36 0-20 Q38-36 73 0 Q38 45 0 37 Q-38 45-73 0Z"/><path class="inside" d="M-59 2 Q0-17 59 2 Q0 31-59 2Z"/><path class="tooth" d="M-52-1 Q0-14 52-1 Q0 8-52-1Z"/><path class="tongue" d="M-30 10 Q0-2 30 10 L25 22 Q0 31-25 22Z"/><text class="label" y="74">th</text></g>
<!-- ee --> <g transform="translate(696 284)"><path class="mouth" d="M-74 0 Q-38-30 0-16 Q38-30 74 0 Q37 38 0 29 Q-37 38-74 0Z"/><path class="inside" d="M-62 1 Q0-16 62 1 Q0 24-62 1Z"/><path class="tooth" d="M-56 0 Q0-13 56 0 Q0 14-56 0Z"/><text class="label" y="70">ee</text></g>
<!-- qw --> <g transform="translate(100 486)"><ellipse class="mouth" rx="48" ry="62"/><ellipse class="inside" rx="25" ry="36"/><path class="tooth" d="M-20-16 Q0-24 20-16 L17-6 Q0-11-17-6Z"/><path class="tongue" d="M-20 19 Q0 9 20 19 Q0 31-20 19Z"/><text class="label" y="94">q w</text></g>
<!-- r --> <g transform="translate(300 486)"><path class="mouth" d="M-69 0 Q-34-38 0-19 Q34-38 69 0 Q35 45 0 36 Q-35 45-69 0Z"/><path class="inside" d="M-54 2 Q0-19 54 2 Q0 28-54 2Z"/><path class="tooth" d="M-46-2 Q0-13 46-2 Q0 7-46-2Z"/><text class="label" y="74">r</text></g>
<!-- l --> <g transform="translate(500 486)"><path class="mouth" d="M-70 0 Q-38-37 0-20 Q38-37 70 0 Q38 48 0 39 Q-38 48-70 0Z"/><path class="inside" d="M-55 1 Q0-20 55 1 Q0 32-55 1Z"/><path class="tooth" d="M-47-1 Q0-14 47-1 Q0 8-47-1Z"/><path class="tongue" d="M-19 11 Q0-5 19 11 L15 27 Q0 32-15 27Z"/><text class="label" y="78">l</text></g>
<!-- ch --> <g transform="translate(696 486)"><path class="mouth" d="M-72 0 Q-37-37 0-20 Q37-37 72 0 Q37 43 0 34 Q-37 43-72 0Z"/><path class="inside" d="M-58 2 Q0-17 58 2 Q0 29-58 2Z"/><path class="tooth" d="M-49-2 Q0-14 49-2 L43 8 Q0 4-43 8Z"/><text class="label" y="75">ch j sh</text></g>
</svg>