<svg xmlns="http://www.w3.org/2000/svg" width="887" height="340" viewBox="0 0 887 340"><rect width="887" height="340" fill="white"/><path fill="black" fill-rule="evenodd" d="M368,294 364,296 363,302 369,309 370,321 378,312 379,301 374,295Z M444,258 434,260 414,276 408,289 412,297 426,302 438,302 455,294 459,287 452,280 439,282 423,293 415,288 415,280 419,275Z M428,294 440,286 452,291 442,296Z M309,276 287,257 277,281 268,292 259,296 244,296 244,299 256,302 267,297 289,270 302,283 303,290 296,302 307,293Z M671,272 667,263 657,256 648,257 634,267 653,260 666,276 665,295 661,299 646,299 621,288 606,286 618,267 601,265 589,273 601,268 612,268 614,272 607,281 590,290 587,295 595,291 611,291 640,303 657,304 671,290Z M133,251 127,261 108,260 103,266 111,272 130,274 129,306 136,309 139,305 140,255Z M523,243 516,247 519,286 523,288 531,280 545,280 547,291 536,298 520,302 489,298 489,303 509,311 530,308 546,299 556,288 558,278 552,271 528,272 528,259Z M741,242 732,246 716,263 701,288 704,299 720,315 728,318 745,315 759,300 759,293 752,293 744,304 731,308 722,305 711,291 720,273 744,246Z M23,242 20,251 24,257 41,257 45,260 38,276 42,279 60,280 65,292 61,301 51,308 36,308 22,300 18,302 18,306 32,317 58,316 69,307 74,296 70,276 53,268 68,248 63,245 51,252 42,244 31,250Z M366,239 351,239 342,250 348,256 354,248 358,249 363,257 363,264 339,304 353,294 370,270 374,249Z M215,235 208,237 198,284 195,285 186,278 181,281 192,293 190,299 169,318 183,312 199,293 209,268Z M119,153 107,162 93,181 94,190 111,208 116,202 116,195 103,182 102,177 120,156Z M474,167 476,180 485,185 495,185 507,180 549,178 552,175 549,172 519,172 510,169 487,171 485,167 494,155 491,150Z M268,189 268,194 277,199 336,198 340,194 337,188 283,187 307,157 308,153 304,149 298,152Z M581,163 585,180 594,187 603,187 617,176 639,178 661,174 659,170 613,166 597,177 591,167 595,150 591,147 585,150Z M690,171 691,178 698,179 709,158 709,180 718,188 729,187 738,181 777,180 773,175 755,175 740,170 720,177 718,172 722,157 718,150 710,146 703,147 698,152Z M812,144 811,150 824,161 807,179 808,189 816,192 856,192 860,189 857,182 822,182 822,177 835,165 836,157 822,146Z M285,136 279,136 242,180 243,186 247,186 286,143Z M25,133 20,139 18,194 23,200 34,201 44,197 54,183 43,177 37,190 28,190 30,138Z M418,128 413,131 411,158 415,164 428,167 435,173 434,189 423,196 410,193 395,180 395,165 389,161 386,164 386,178 371,195 371,203 377,202 390,189 404,201 417,206 430,204 443,193 444,170 438,161 422,155 422,132Z M209,125 202,128 203,139 199,143 176,146 164,154 163,191 153,205 155,209 164,208 171,200 172,161 180,155 203,153 211,146 213,132Z M124,118 112,121 94,137 84,153 83,162 86,162 100,138 123,123Z M67,67 63,70 63,76 71,79 74,71Z M63,34 57,34 20,73 20,81 27,80 65,39Z M437,33 432,33 421,43 415,34 411,34 405,43 397,33 391,36 395,48 400,51 411,49 414,52 397,70 399,78 447,78 444,71 412,69 439,40Z M756,30 750,35 749,74 753,80 760,76 760,34Z M727,30 723,34 722,75 729,79 732,76 733,34Z M705,30 699,33 698,72 682,77 688,84 702,82 708,72 709,34Z M362,36 356,34 336,44 322,29 315,29 314,34 326,49 280,78 277,84 282,86 330,58 338,57 343,50 361,41Z M162,37 147,27 123,30 119,34 122,39 143,36 154,43 159,54 158,67 151,76 140,77 125,66 118,65 108,73 103,84 109,84 118,75 139,87 157,84 168,68 168,50Z M820,26 817,29 815,83 818,88 823,88 826,79 827,31Z M797,26 791,29 789,84 792,88 799,85 801,31Z M523,24 517,27 516,70 503,80 506,89 512,94 519,93 528,80 555,80 559,77 557,72 525,69 526,27Z M199,24 198,32 224,33 237,47 239,61 235,72 224,81 205,82 212,90 227,90 236,85 246,72 248,51 245,42 228,24Z M484,20 478,24 477,80 480,82 487,78 488,26Z M618,14 614,18 611,44 617,50 631,47 638,51 644,61 643,72 628,86 617,85 605,73 599,72 590,79 588,86 592,88 601,82 611,92 627,96 638,92 650,80 653,58 650,50 639,40 648,28 644,26 622,39 624,18Z"/></svg>